<svg width="31" height="19" viewBox="0 0 31 19" fill="none" xmlns="http://www.w3.org/2000/svg">
<path d="M29.25 10.455C29.9404 10.455 30.5 9.89531 30.5 9.20496C30.5 8.5146 29.9404 7.95496 29.25 7.95496L29.25 9.20496L29.25 10.455ZM0.366116 8.32107C-0.122038 8.80923 -0.122038 9.60068 0.366115 10.0888L8.32107 18.0438C8.80922 18.5319 9.60068 18.5319 10.0888 18.0438C10.577 17.5556 10.577 16.7642 10.0888 16.276L3.01777 9.20495L10.0888 2.13389C10.577 1.64573 10.577 0.854275 10.0888 0.36612C9.60068 -0.122036 8.80922 -0.122036 8.32107 0.366119L0.366116 8.32107ZM29.25 9.20496L29.25 7.95496L1.25 7.95495L1.25 9.20495L1.25 10.455L29.25 10.455L29.25 9.20496Z" fill="#F4F9FC"/>
</svg>
