<svg width="98" height="33" viewBox="0 0 98 33" fill="none" xmlns="http://www.w3.org/2000/svg">
<path d="M74.9208 22.5975C74.9208 19.0194 73.9177 16.1671 71.9116 14.0264C69.9166 11.8886 67.2576 10.8126 63.9569 10.8126C60.6562 10.8126 57.9104 11.8269 55.7837 13.8583C53.6682 15.8757 52.6035 18.4647 52.6035 21.6196C52.6035 24.7746 53.657 27.4588 55.7361 29.4538C57.8263 31.4348 60.5834 32.4266 64.0045 32.4266C66.7 32.4266 68.9499 31.8579 70.7516 30.6979C71.5557 30.1851 72.2394 29.5743 72.8054 28.8682L69.3002 25.8141C68.8042 26.5286 68.115 27.0722 67.1959 27.4588C66.2881 27.8455 65.2738 28.0388 64.125 28.0388C62.301 28.0388 60.8496 27.6157 59.7624 26.7696C58.6865 25.9122 58.0561 24.7017 57.8879 23.1187H74.9208V22.5975ZM57.8879 19.5042C58.227 18.1368 58.9387 17.0609 60.0034 16.2988C61.0793 15.5395 62.3962 15.1528 63.9569 15.1528C65.5176 15.1528 66.7 15.5255 67.7031 16.2652C68.7062 16.9881 69.4207 18.078 69.8437 19.5042H57.8879Z" fill="white"/>
<path d="M20.9612 27.5877H23.8387V31.8915H13.7434V28.4815L15.8112 27.5877V19.0895C15.8112 17.9771 15.5339 17.1197 14.9651 16.5145C14.4103 15.8981 13.6117 15.5843 12.5946 15.5843C11.6896 15.5843 10.793 15.8505 9.91039 16.3688C9.03059 16.8648 8.14799 17.6521 7.27659 18.7028V27.5877L9.34441 28.4815V31.8915H0.0588379V28.4815L2.12666 27.5877V6.20345H0V0.89661L2.06501 0H7.27659V14.0965C8.48422 12.9365 9.66943 12.1015 10.8434 11.5691C12.0287 11.0396 13.2727 10.7734 14.5784 10.7734C16.7415 10.7734 18.3386 11.3534 19.3781 12.5134C20.4288 13.6846 20.9612 15.5002 20.9612 17.9407V27.5877Z" fill="white"/>
<path d="M35.1729 28.4872V31.8943H25.8873V28.4872L27.9551 27.5905V15.5143L27.8206 15.5759H27.8178V15.5843L25.75 16.5033V12.1996L27.8178 11.303V11.3198L27.8206 11.3086H33.105V27.5905L35.1729 28.4872Z" fill="white"/>
<path d="M89.5493 18.2349C90.0088 18.7897 90.4683 19.3361 90.8802 19.818L97.9999 11.3086H91.5919L88.4481 15.0688C88.4481 15.0688 88.1455 15.4302 87.6748 15.999L88.0727 16.4697C88.5434 17.0385 89.0506 17.6437 89.5465 18.2349H89.5493Z" fill="white"/>
<path d="M90.5889 23.7239C89.7792 24.6793 88.8854 25.7553 88.0756 26.7332C87.9439 26.8901 87.8094 27.047 87.6777 27.2039C88.1625 27.7727 88.4623 28.1341 88.4623 28.1341L91.592 31.8943H98L90.8803 23.3708L90.5889 23.7211V23.7239Z" fill="white"/>
<path d="M86.2236 18.0164C86.1872 17.9687 86.1396 17.9183 86.1031 17.8707C84.8087 16.3352 83.7579 15.066 83.7579 15.066L80.603 11.3058H74.209L82.8053 21.5944L74.209 31.8943H80.603L83.7467 28.1341C83.7467 28.1341 84.7862 26.8901 86.1031 25.3182C86.1396 25.2706 86.1872 25.2201 86.2236 25.1725C87.1903 23.9985 88.2915 22.6956 89.2105 21.5944C88.3391 20.5549 87.2155 19.2128 86.2236 18.0164Z" fill="white"/>
<path d="M48.4397 10.9387C46.6381 10.9387 45.1615 12.2724 44.9065 14.004L44.4414 14.2142V11.303H39.2915L37.2236 12.1968V16.5005L39.2915 15.5815V27.5849L37.2236 28.4787V31.8887H46.4812V28.4787L44.4414 27.5849V15.9037L45.0494 15.6319C45.5201 17.0637 46.851 18.106 48.4397 18.106C50.4207 18.106 52.0234 16.5005 52.0234 14.5224C52.0234 12.5442 50.4179 10.9387 48.4397 10.9387Z" fill="white"/>
<path d="M30.1964 9.30802C32.0177 9.30802 33.4915 7.8314 33.4915 6.01296C33.4915 4.19451 32.0149 2.7179 30.1964 2.7179C28.378 2.7179 26.9014 4.19451 26.9014 6.01296C26.9014 7.8314 28.378 9.30802 30.1964 9.30802Z" fill="white"/>
</svg>
