<svg width="709" height="197" viewBox="0 0 709 197" fill="none" xmlns="http://www.w3.org/2000/svg">
<path d="M79.1555 42.9952C90.5976 31.4074 96.3186 25.6135 103.61 22.5236C103.732 22.4721 103.854 22.4212 103.976 22.3709C111.298 19.3534 119.44 19.3534 135.725 19.3534L583.671 19.3534C600.244 19.3534 608.531 19.3534 615.956 22.4688C616.079 22.5206 616.203 22.5731 616.326 22.6263C623.719 25.8162 629.465 31.7873 640.956 43.7296C665.875 69.6254 678.334 82.5734 678.487 98.4702C678.489 98.7255 678.489 98.9809 678.487 99.2363C678.334 115.133 665.875 128.081 640.957 153.977C629.465 165.919 623.719 171.891 616.326 175.081C616.203 175.134 616.079 175.186 615.956 175.238C608.531 178.354 600.244 178.354 583.671 178.354L135.725 178.353C119.44 178.353 111.298 178.353 103.976 175.336C103.854 175.286 103.732 175.235 103.61 175.183C96.3186 172.093 90.5976 166.299 79.1554 154.711C53.3008 128.527 40.3735 115.435 40.2158 99.2428C40.2133 98.9831 40.2133 98.7234 40.2158 98.4637C40.3735 82.2712 53.3008 69.1792 79.1555 42.9952Z" stroke="#99A3AA" stroke-width="2" stroke-linecap="round" stroke-linejoin="round" stroke-dasharray="15 15"/>
<line x1="25" y1="98.3531" y2="98.3531" stroke="#32393E" stroke-width="2"/>
<line x1="709" y1="98.3531" x2="693" y2="98.3531" stroke="#32393E" stroke-width="2"/>
<path d="M593.642 196.72C593.877 196.485 594.113 196.249 594.349 196.013C593.802 195.326 593.253 194.642 592.7 193.961C587.72 187.836 582.455 181.998 576.903 176.446C576.903 176.446 576.903 176.446 576.903 176.446V179.274C582.455 173.722 587.72 167.884 592.7 161.759C593.253 161.079 593.802 160.395 594.349 159.707C594.113 159.471 593.877 159.236 593.642 159C592.954 159.546 592.27 160.096 591.589 160.649C585.465 165.628 579.626 170.894 574.074 176.446C574.074 176.446 574.074 176.446 574.074 176.446L572.66 177.86L574.074 179.274C579.626 184.826 585.465 190.092 591.589 195.071C592.27 195.624 592.954 196.174 593.642 196.72Z" fill="#99A3AA"/>
<path d="M598.651 190.927C598.884 190.688 599.116 190.45 599.349 190.211C598.989 189.721 598.626 189.234 598.26 188.751C594.96 184.403 591.378 180.344 587.513 176.576C587.513 176.576 587.513 176.576 587.513 176.576V179.44C591.378 175.672 594.96 171.614 598.26 167.266C598.626 166.783 598.989 166.296 599.349 165.806C599.116 165.567 598.884 165.328 598.651 165.09C598.152 165.437 597.656 165.787 597.164 166.142C592.733 169.33 588.586 172.808 584.721 176.576C584.721 176.576 584.721 176.576 584.721 176.576L583.252 178.008L584.721 179.44C588.586 183.208 592.733 186.687 597.164 189.875C597.656 190.229 598.152 190.58 598.651 190.927Z" fill="#99A3AA"/>
<path d="M576.358 37.7203C576.123 37.4846 575.887 37.2488 575.651 37.0131C576.198 36.3255 576.747 35.6415 577.3 34.961C582.28 28.8362 587.545 22.9979 593.097 17.4459C593.097 17.4459 593.097 17.4459 593.097 17.4459V20.2743C587.545 14.7224 582.28 8.88403 577.3 2.7593C576.747 2.07877 576.198 1.39471 575.651 0.707115C575.887 0.471413 576.123 0.23571 576.358 7.62939e-06C577.046 0.546185 577.73 1.09589 578.411 1.64914C584.535 6.62836 590.374 11.8939 595.926 17.4459C595.926 17.4459 595.926 17.4459 595.926 17.4459L597.34 18.8601L595.926 20.2743C590.374 25.8263 584.535 31.0919 578.411 36.0711C577.73 36.6244 577.046 37.1741 576.358 37.7203Z" fill="#99A3AA"/>
<path d="M571.349 31.9269C571.116 31.6883 570.884 31.4496 570.651 31.2109C571.011 30.7206 571.374 30.2339 571.74 29.7508C575.04 25.4026 578.622 21.3445 582.487 17.5763C582.487 17.5763 582.487 17.5763 582.487 17.5763V20.4403C578.622 16.6721 575.04 12.6139 571.74 8.2657C571.374 7.78257 571.011 7.29586 570.651 6.80557C570.884 6.56691 571.116 6.32824 571.349 6.08957C571.848 6.43666 572.344 6.78733 572.836 7.14158C577.267 10.3298 581.414 13.8081 585.279 17.5763C585.279 17.5763 585.279 17.5763 585.279 17.5763L586.748 19.0083L585.279 20.4403C581.414 24.2085 577.267 27.6867 572.836 30.8749C572.344 31.2292 571.848 31.5798 571.349 31.9269Z" fill="#99A3AA"/>
<path d="M143.153 196.72C143.389 196.485 143.625 196.249 143.86 196.013C143.314 195.326 142.765 194.642 142.211 193.961C137.232 187.836 131.966 181.998 126.414 176.446C126.414 176.446 126.414 176.446 126.414 176.446V179.274C131.966 173.722 137.232 167.884 142.211 161.759C142.765 161.079 143.314 160.395 143.86 159.707C143.625 159.471 143.389 159.236 143.153 159C142.466 159.546 141.782 160.096 141.101 160.649C134.976 165.628 129.138 170.894 123.586 176.446C123.586 176.446 123.586 176.446 123.586 176.446L122.172 177.86L123.586 179.274C129.138 184.826 134.976 190.092 141.101 195.071C141.782 195.624 142.466 196.174 143.153 196.72Z" fill="#99A3AA"/>
<path d="M148.163 190.927C148.395 190.688 148.628 190.45 148.861 190.211C148.501 189.721 148.138 189.234 147.771 188.751C144.472 184.403 140.89 180.344 137.025 176.576C137.025 176.576 137.025 176.576 137.025 176.576V179.44C140.89 175.672 144.472 171.614 147.771 167.266C148.138 166.783 148.501 166.296 148.861 165.806C148.628 165.567 148.395 165.328 148.163 165.09C147.663 165.437 147.168 165.787 146.675 166.142C142.245 169.33 138.098 172.808 134.233 176.576C134.233 176.576 134.233 176.576 134.233 176.576L132.764 178.008L134.233 179.44C138.098 183.208 142.245 186.687 146.675 189.875C147.168 190.229 147.663 190.58 148.163 190.927Z" fill="#99A3AA"/>
<path d="M128.358 37.7203C128.123 37.4846 127.887 37.2488 127.651 37.0131C128.198 36.3255 128.747 35.6415 129.3 34.961C134.28 28.8362 139.545 22.9979 145.097 17.4459C145.097 17.4459 145.097 17.4459 145.097 17.4459V20.2743C139.545 14.7224 134.28 8.88403 129.3 2.7593C128.747 2.07877 128.198 1.39471 127.651 0.707115C127.887 0.471413 128.123 0.23571 128.358 7.62939e-06C129.046 0.546185 129.73 1.09589 130.411 1.64914C136.535 6.62836 142.374 11.8939 147.926 17.4459C147.926 17.4459 147.926 17.4459 147.926 17.4459L149.34 18.8601L147.926 20.2743C142.374 25.8263 136.535 31.0919 130.411 36.0711C129.73 36.6244 129.046 37.1741 128.358 37.7203Z" fill="#99A3AA"/>
<path d="M123.349 31.9269C123.116 31.6883 122.884 31.4496 122.651 31.2109C123.011 30.7206 123.374 30.2339 123.74 29.7508C127.04 25.4026 130.622 21.3445 134.487 17.5763C134.487 17.5763 134.487 17.5763 134.487 17.5763V20.4403C130.622 16.6721 127.04 12.6139 123.74 8.2657C123.374 7.78257 123.011 7.29586 122.651 6.80557C122.884 6.56691 123.116 6.32824 123.349 6.08957C123.848 6.43666 124.344 6.78733 124.836 7.14158C129.267 10.3298 133.414 13.8081 137.279 17.5763C137.279 17.5763 137.279 17.5763 137.279 17.5763L138.748 19.0083L137.279 20.4403C133.414 24.2085 129.267 27.6867 124.836 30.8749C124.344 31.2292 123.848 31.5798 123.349 31.9269Z" fill="#99A3AA"/>
</svg>
